<svg width="536" height="205" xmlns="http://www.w3.org/2000/svg"><path d="M26.672 179.485h14.054l-6.891-22.939h-.272l-6.891 22.939zm-4.714 13.6l-3.537 9.702H.016l26.928-67.095h13.51l26.656 67.095H48.523l-3.264-9.702zm93.401-17.018c.063.824.063 1.523.063 2.475 0 15.739-12.058 25.195-25.069 25.195-14.216 0-24.942-11.105-24.942-24.625 0-14.025 11.297-24.179 25.133-24.179 11.233 0 20.88 7.552 23.482 16.628h-13.455c-1.841-3.3-5.268-6.093-10.345-6.093-5.903 0-12.82 4.379-12.82 13.644 0 9.839 6.981 14.091 12.884 14.091 5.965 0 9.964-2.984 11.233-7.553H87.497v-9.583zm17.182 3.363h4.253c7.044 0 7.869-4.443 7.869-6.727 0-4.252-3.11-6.347-7.742-6.347h-4.38zm-11.488-23.609h14.852c8.251 0 11.424 1.015 14.47 3.363 3.872 3.047 5.775 7.997 5.775 12.821 0 5.394-2.792 13.329-11.677 14.787l12.757 15.995h-13.709l-10.853-15.17h-.127v15.17h-11.488zm63.719 37.317c8.505 0 12.63-7.742 12.63-13.771 0-6.093-4.125-13.899-12.757-13.899-8.314 0-12.82 7.108-12.82 13.709 0 7.235 4.887 13.961 12.947 13.961zm-.19-38.205c14.47 0 24.815 11.296 24.815 24.371 0 13.074-10.281 24.371-24.879 24.371-14.787 0-24.688-11.742-24.688-23.8 0-3.11.444-6.601 1.841-10.028 2.475-6.093 9.774-14.914 22.911-14.914z" fill="#e63a41"/><path d="M318.824 177.671c-3.898 15.867-17.68 26.384-33.909 26.384-21.035 0-35.36-16.774-35.36-34.907 0-17.136 13.238-34.725 35.178-34.725 21.036 0 32.279 16.229 34.091 26.747h-17.952c-1.903-4.987-6.98-11.696-16.229-11.696-11.514 0-17.952 10.063-17.952 19.584 0 10.154 6.891 19.947 18.042 19.947 10.699 0 15.052-8.976 16.139-11.334zm28.031 15.467c8.506 0 12.631-7.742 12.631-13.771 0-6.093-4.125-13.899-12.758-13.899-8.313 0-12.82 7.108-12.82 13.709 0 7.235 4.888 13.961 12.947 13.961zm-.19-38.205c14.472 0 24.815 11.296 24.815 24.371 0 13.074-10.281 24.371-24.877 24.371-14.789 0-24.69-11.742-24.69-23.8 0-3.11.445-6.601 1.841-10.028 2.475-6.093 9.773-14.914 22.911-14.914zm41.108 24.497h4.253c7.044 0 7.87-4.443 7.87-6.727 0-4.252-3.11-6.347-7.742-6.347h-4.381zm-11.487-23.609h14.852c8.25 0 11.424 1.015 14.471 3.363 3.87 3.047 5.774 7.997 5.774 12.821 0 5.394-2.792 13.329-11.677 14.787l12.758 15.995h-13.711l-10.852-15.17h-.128v15.17h-11.487zm41.141 0h10.346l18.151 29.513.125-.128-.505-29.385h11.487v46.966h-10.409l-17.898-28.561-.128.063.318 28.498h-11.487zm47.698 0h26.083v10.535h-14.596v7.299h14.154v10.535h-14.154v8.06h14.596v10.537h-26.083zm45.621 23.609h4.253c7.044 0 7.869-4.443 7.869-6.727 0-4.252-3.112-6.347-7.744-6.347h-4.378zm-11.487-23.609h14.849c8.253 0 11.425 1.015 14.471 3.363 3.873 3.047 5.776 7.997 5.776 12.821 0 5.394-2.791 13.329-11.677 14.787l12.756 15.995h-13.709l-10.851-15.17h-.128v15.17h-11.487z" fill="#fff"/><path d="M368.064 27.479c.833 2.813-.84 4.931-2.255 5.295-3.809.979-36.325 7.474-65.599 23.643-34.25 18.917-43.306 43.792-43.306 43.792s3.528-3.819 14.82-11.111c8.944-5.775 15.23-8.358 17.448-9.34 2.082-.922 5.203.052 6.454 2.451 1.25 2.395.211 4.902-1.561 5.716-5.299 2.437-20.133 8.853-34.827 22.879-9.396 8.969-15.428 18.793-19.195 26.419-4.5 9.111-7.955 25.141-7.471 28.67 1.912 13.938 3.822 31.658 3.91 33.545.114 2.448-1.397 4.267-3.856 4.372-2.476.107-5.25-1.156-5.614-4.622-.485-4.619-1.386-15.771-4.227-35.521-2.855-19.847-5.296-35.404-12.298-64.222-4.694-19.32-8.351-29.946-8.913-32.017-.657-2.421 1.031-4.813 3.636-5.27 2.155-.378 4.622.385 5.548 3.194 1.327 4.023 6.642 22.566 10.174 37.204 3.736 15.486 7.778 37.888 7.778 37.888s3.662-9.461 7.148-15.11c3.737-6.056 8.42-12.204 8.42-12.204s-.985-1.755-.57-3.201c.621-2.162 3.391-16.177 14.706-30.633 9.974-12.742 18.462-19.078 31.406-27.629 7.741-5.114 25.224-13.326 35.723-17.083 10.229-3.662 32.125-10 37.292-10.695 2.502-.337 4.526 1.217 5.229 3.59z" fill="#e63a41"/><path d="M353.626 71.75c-4.557 4.626-10.777 9.862-17.879 14.202-14.31 8.747-24.092 12.632-32.675 15.91-5.434 2.075-12.149 4.576-15.342 5.326-2.868.673-4.854-.563-5.625-2.854-.828-2.464.209-5.292 2.688-6.105 2.021-.662 27.516-8.13 45.773-19.914 17.727-11.44 25.519-22.106 30.623-35.948.817-2.216 3.345-3.377 6.133-2.492 2.625.834 3.408 3.472 2.846 5.167-1.443 4.348-5.348 15.348-16.542 26.708zM162.221 5.964s1.472-.747 2.651-.634c1.179.114 2.086.522 2.653.975.566.453 2.452 1.966 3.672 2.878 1.985 1.484 6.198 4.227 11.9 6.982 8.058 3.893 14.913 6.838 23.236 10.669 18.834 8.666 33.334 23.333 32.597 44.11-.42 11.815-9.737 15.924-13.19 17.141-2.561.902-4.393-.906-5.018-2.823-.625-1.917.079-4.964 2.234-5.998 2.118-1.016 4.357-1.507 6.211-5.097 2.666-5.167-1.543-22.419-14-31.667-8.382-6.221-18.5-10.055-26-13.333A724.37 724.37 0 0 1 175.488 23s8.555 12.834 14.61 30.056c6.927 19.701 9.5 36.278 9.5 36.278s1.811-1.051 4.334-.611c2.451.427 4.125 1.805 4.476 4.331.29 2.094-.646 5.185-4.11 5.536-2.375.241-3.515-.57-3.515-.57s-.365 3.564-4.511 4.314c-2.812.508-4.333-1.355-4.646-3.417-.379-2.501-2.5-19.25-8.805-38.139-5.927-17.756-12.695-30.278-22.028-42.069-6.756-8.536-9.563-10.292-10.419-11.398-1.345-1.737-.625-4.561 1.058-5.863 1.375-1.065 3.916-1.976 5.837-.327 2.117 1.819 4.952 4.843 4.952 4.843z" fill="#e63a41"/></svg>