<svg height="204" width="222" xmlns="http://www.w3.org/2000/svg"><g fill="#e63a41"><path d="m219.064 27.479c.833 2.813-.84 4.931-2.255 5.295-3.809.979-36.325 7.474-65.599 23.643-34.25 18.917-43.306 43.792-43.306 43.792s3.528-3.819 14.82-11.111c8.944-5.775 15.23-8.358 17.448-9.34 2.082-.922 5.203.052 6.454 2.451 1.25 2.395.211 4.902-1.561 5.716-5.299 2.437-20.133 8.853-34.827 22.879-9.396 8.969-15.428 18.793-19.195 26.419-4.5 9.111-7.955 25.141-7.471 28.67 1.912 13.938 3.822 31.658 3.91 33.545.114 2.448-1.397 4.267-3.856 4.372-2.476.107-5.25-1.156-5.614-4.622-.485-4.619-1.386-15.771-4.227-35.521-2.855-19.847-5.296-35.404-12.298-64.222-4.694-19.32-8.351-29.946-8.913-32.017-.657-2.421 1.031-4.813 3.636-5.27 2.155-.378 4.622.385 5.548 3.194 1.327 4.023 6.642 22.566 10.174 37.204 3.736 15.486 7.778 37.888 7.778 37.888s3.662-9.461 7.148-15.11c3.737-6.056 8.42-12.204 8.42-12.204s-.985-1.755-.57-3.201c.621-2.162 3.391-16.177 14.706-30.633 9.974-12.742 18.462-19.078 31.406-27.629 7.741-5.114 25.224-13.326 35.723-17.083 10.229-3.662 32.125-10 37.292-10.695 2.502-.337 4.526 1.217 5.229 3.59z"/><path d="m204.626 71.75c-4.557 4.626-10.777 9.862-17.879 14.202-14.31 8.747-24.092 12.632-32.675 15.91-5.434 2.075-12.149 4.576-15.342 5.326-2.868.673-4.854-.563-5.625-2.854-.828-2.464.209-5.292 2.688-6.105 2.021-.662 27.516-8.13 45.773-19.914 17.727-11.44 25.519-22.106 30.623-35.948.817-2.216 3.345-3.377 6.133-2.492 2.625.834 3.408 3.472 2.846 5.167-1.443 4.348-5.348 15.348-16.542 26.708zm-191.405-65.786s1.472-.747 2.651-.634c1.179.114 2.086.522 2.653.975.566.453 2.452 1.966 3.672 2.878 1.985 1.484 6.198 4.227 11.9 6.982 8.058 3.893 14.913 6.838 23.236 10.669 18.834 8.666 33.334 23.333 32.597 44.11-.42 11.815-9.737 15.924-13.19 17.141-2.561.902-4.393-.906-5.018-2.823s.079-4.964 2.234-5.998c2.118-1.016 4.357-1.507 6.211-5.097 2.666-5.167-1.543-22.419-14-31.667-8.382-6.221-18.5-10.055-26-13.333-7.04-3.077-13.679-6.167-13.679-6.167s8.555 12.834 14.61 30.056c6.927 19.701 9.5 36.278 9.5 36.278s1.811-1.051 4.334-.611c2.451.427 4.125 1.805 4.476 4.331.29 2.094-.646 5.185-4.11 5.536-2.375.241-3.515-.57-3.515-.57s-.365 3.564-4.511 4.314c-2.812.508-4.333-1.355-4.646-3.417-.379-2.501-2.5-19.25-8.805-38.139-5.927-17.756-12.695-30.278-22.028-42.069-6.756-8.536-9.563-10.292-10.419-11.398-1.345-1.737-.625-4.561 1.058-5.863 1.375-1.065 3.916-1.976 5.837-.327 2.117 1.819 4.952 4.843 4.952 4.843z"/></g></svg>